<svg width="20" height="20" viewBox="0 0 20 20" fill="none" xmlns="http://www.w3.org/2000/svg">
  <path
    d="M9.98808 0C11.3707 0 12.6698 0.262217 13.8856 0.786651C15.1013 1.31108 16.1621 2.02622 17.0679 2.93206C17.9738 3.8379 18.6889 4.89472 19.2133 6.1025C19.7378 7.31029 20 8.60548 20 9.98808C20 11.3707 19.7378 12.6698 19.2133 13.8856C18.6889 15.1013 17.9738 16.1621 17.0679 17.0679C16.1621 17.9738 15.1013 18.6889 13.8856 19.2133C12.6698 19.7378 11.3707 20 9.98808 20C8.60548 20 7.31029 19.7378 6.1025 19.2133C4.89472 18.6889 3.8379 17.9738 2.93206 17.0679C2.02622 16.1621 1.31108 15.1013 0.786651 13.8856C0.262217 12.6698 0 11.3707 0 9.98808C0 8.60548 0.262217 7.31029 0.786651 6.1025C1.31108 4.89472 2.02622 3.8379 2.93206 2.93206C3.8379 2.02622 4.89472 1.31108 6.1025 0.786651C7.31029 0.262217 8.60548 0 9.98808 0ZM13.7545 4.36234H11.6329C11.2197 4.36234 10.8383 4.43385 10.4887 4.57688C10.1391 4.7199 9.83313 4.91061 9.57092 5.14899C9.3087 5.38737 9.10608 5.65753 8.96305 5.95948C8.82002 6.26142 8.74851 6.56337 8.74851 6.86532V8.12872H6.86532V10.6079H8.74851V15.6138H11.2515V10.6079H13.1108V8.12872H11.2515V7.4851C11.2515 7.2944 11.327 7.14342 11.478 7.03218C11.6289 6.92094 11.76 6.86532 11.8713 6.86532H13.7545V4.36234Z"
    fill="white" />
</svg>