<svg width="20" height="20" viewBox="0 0 16 15" fill="none" xmlns="http://www.w3.org/2000/svg">
  <path
    d="M11.0863 9.62314L10.6841 10.0227C10.6841 10.0227 9.72827 10.9725 7.1192 8.3799C4.51014 5.78737 5.46599 4.83757 5.46599 4.83757L5.71921 4.58593C6.3431 3.96604 6.4019 2.97081 5.85757 2.24425L4.74424 0.758011C4.07058 -0.141251 2.76885 -0.260042 1.99671 0.507201L0.610857 1.88428C0.227999 2.26472 -0.0285646 2.75788 0.00255009 3.30496C0.0821467 4.70456 0.715803 7.71593 4.25165 11.2294C8.00125 14.9552 11.5195 15.1033 12.9582 14.9692C13.4133 14.9269 13.809 14.6953 14.1279 14.3783L15.3822 13.1321C16.2289 12.2908 15.9901 10.8485 14.9069 10.26L13.22 9.34361C12.5087 8.95723 11.6422 9.0707 11.0863 9.62314Z"
    fill="white" />
</svg>