<?xml version="1.0" encoding="UTF-8" standalone="no"?>
<svg version="1.1" width="758.28308" height="759.36517"
  style="clip-rule:evenodd;fill-rule:evenodd;image-rendering:optimizeQuality;shape-rendering:geometricPrecision;text-rendering:geometricPrecision"
  xmlns="http://www.w3.org/2000/svg" xmlns:svg="http://www.w3.org/2000/svg">
  <path fill="#111111"
    d="m 351.99492,0.43200033 c 120.826,-5.13640003 222.993,35.53029967 306.5,121.99999967 77.645,87.619 109.979,189.952 97,307 -21.934,135.47 -94.101,233.637 -216.5,294.5 -119.659,52.082 -236.659,46.749 -351,-16 C 75.960921,638.784 13.461021,538.284 0.49492126,406.432 -5.3244787,277.614 40.175521,171.114 136.99492,86.932 c 62.785,-50.6564 134.452,-79.4897997 215,-86.49999967 z" />
  <path fill="#FFFFFF"
    d="m 356.99492,6.4320003 c 135.444,-3.6851 243.944,47.9815997 325.5,154.9999997 74.775,109.862 89.775,227.529 45,353 -42.046,103.046 -114.879,174.879 -218.5,215.5 -113.682,39.522 -222.349,28.855 -326,-32 C 76.200921,628.575 17.367921,530.075 6.4949213,402.432 1.8414213,268.597 52.007921,160.764 156.99492,78.932 c 59.709,-43.2926 126.376,-67.4593 200,-72.4999997 z" />
  <path fill="#111111"
    d="m 353.99492,26.432 c 19.177,-2.509 35.344,3.1577 48.5,17 14.166,22.1578 12,42.658 -6.5,61.5 -7.435,5.48 -15.768,8.814 -25,10 -13.667,0.667 -27.333,0.667 -41,0 1.59,-1.046 3.09,-2.213 4.5,-3.5 0.892,-26.065 0.226,-52.0649 -2,-78 -1.558,-1.8589 -3.391,-3.3589 -5.5,-4.5 9.217,-0.1195 18.217,-0.9528 27,-2.5 z" />
  <path fill="#FFFFFF"
    d="m 352.99492,28.432 c 24.896,-3.6528 40.063,6.6805 45.5,31 2.037,13.989 0.037,27.322 -6,40 -5.884,8.531 -14.051,13.365 -24.5,14.5 -6.224,1.061 -12.224,0.394 -18,-2 -1.393,-1.171 -2.227,-2.671 -2.5,-4.5 -1.333,-24.324 -2,-48.6575 -2,-73 2.071,-2.6086 4.571,-4.6086 7.5,-6 z" />
  <path fill="#111111"
    d="m 474.99492,37.432 c 23.701,10.4549 47.701,20.1216 72,29 -1.999,1.9935 -3.499,4.327 -4.5,7 -2.071,5.715 -4.238,11.382 -6.5,17 -0.333,-0.833 -0.667,-1.667 -1,-2.5 1.585,-6.767 2.085,-13.6 1.5,-20.5 -6.278,-6.6533 -13.611,-8.9866 -22,-7 -9.781,21.343 -18.781,43.009 -27,65 -1.824,5.557 -0.157,9.557 5,12 0.688,0.832 0.521,1.498 -0.5,2 -9.357,-4.221 -18.69,-8.221 -28,-12 2.886,-0.21 5.886,-0.377 9,-0.5 0.833,-0.833 1.667,-1.667 2.5,-2.5 9.723,-22.78 18.89,-45.78 27.5,-69 -0.719,-2.2277 -2.052,-4.061 -4,-5.5 -5.678,-3.009 -11.678,-4.3424 -18,-4 -5.278,5.4163 -9.945,11.2497 -14,17.5 -0.333,-0.3333 -0.667,-0.6667 -1,-1 3.878,-8.0748 6.878,-16.4081 9,-25 z" />
  <path fill="#111111"
    d="m 572.99492,96.432 c 22.024,-1.074 37.858,8.259 47.5,28 5.643,24.071 -1.857,42.904 -22.5,56.5 -19.701,10.589 -37.535,8.089 -53.5,-7.5 -15.916,-21.126 -15.249,-41.793 2,-62 7.51,-7.5 16.343,-12.5 26.5,-15 z" />
  <path fill="#FFFFFF"
    d="m 581.99492,101.432 c 16.027,-0.737 27.194,6.263 33.5,21 1.133,12.605 -2.2,23.938 -10,34 -4.708,6.585 -10.208,12.419 -16.5,17.5 -16.28,11.376 -31.113,9.876 -44.5,-4.5 -6.471,-12.691 -5.804,-25.024 2,-37 8.667,-14.18 20.5,-24.514 35.5,-31 z" />
  <path fill="#111111"
    d="m 291.99492,34.432 c 0.876,-0.1309 1.543,0.2025 2,1 -3.637,2.1066 -5.304,5.2733 -5,9.5 7.632,24.893 16.465,49.393 26.5,73.5 0.783,1.819 0.283,3.152 -1.5,4 -28.382,-16.217 -56.882,-32.217 -85.5,-48 -0.5,0.333 -1,0.667 -1.5,1 7.735,19.706 15.569,39.373 23.5,59 1.214,1.549 2.714,2.715 4.5,3.5 3.053,0.179 6.053,0.679 9,1.5 -17.849,5.255 -33.182,14.588 -46,28 -0.333,-0.333 -0.667,-0.667 -1,-1 4.402,-4.906 3.736,-9.072 -2,-12.5 -4.166,-2.917 -8.499,-5.584 -13,-8 -1.789,-0.52 -3.456,-0.187 -5,1 -8.5,7.167 -17,14.333 -25.5,21.5 1.165,7.013 3.498,13.679 7,20 3.764,2.492 7.598,2.492 11.5,0 0.333,0.333 0.667,0.667 1,1 -5.975,4.97 -11.975,9.97 -18,15 -0.333,-0.333 -0.667,-0.667 -1,-1 2.891,-4.575 3.725,-9.575 2.5,-15 -7.408,-23.225 -15.408,-46.225 -24,-69 -1.669,-2.221 -3.669,-2.555 -6,-1 -1.257,-0.35 -1.591,-1.017 -1,-2 4.42,-3.913 8.253,-8.247 11.5,-13 0.793,2.626 2.46,4.46 5,5.5 22,12.667 44,25.333 66,38 8.23,3.48 15.063,1.647 20.5,-5.5 0.667,-2.667 0.667,-5.333 0,-8 -7.755,-21.604 -16.088,-42.937 -25,-64 -3.656,-1.4694 -7.489,-2.4694 -11.5,-3 4.539,-1.3825 8.872,-3.2159 13,-5.5 1.333,-0.6667 2.667,-0.6667 4,0 26.74,14.119 53.24,28.619 79.5,43.5 -5.981,-18.931 -12.981,-37.5979 -21,-56 -3.456,-4.2566 -7.956,-6.0899 -13.5,-5.5 6.983,-2.2365 13.649,-5.0698 20,-8.5 z" />
  <path fill="#FFFFFF"
    d="m 151.99492,116.432 c 14.834,8.582 29.5,17.416 44,26.5 -7.571,8.736 -16.238,16.236 -26,22.5 -6.788,-16.028 -12.788,-32.361 -18,-49 z" />
  <path fill="#111111"
    d="m 364.99492,133.432 c 85.453,-1.352 153.953,31.648 205.5,99 46.893,68.377 57.226,142.044 31,221 -23.398,62.4 -65.231,107.9 -125.5,136.5 -75.174,31.88 -148.507,28.213 -220,-11 -70.168,-43.588 -109.335,-106.755 -117.5,-189.5 -3.288,-98.279 36.545,-173.113 119.5,-224.5 33.386,-18.757 69.052,-29.257 107,-31.5 z" />
  <path fill="#FFFFFF"
    d="m 354.99492,137.432 c 87.966,-4.253 158.8,28.08 212.5,97 48.312,70.895 57.312,146.562 27,227 -36.705,82.015 -99.538,130.181 -188.5,144.5 -92.051,8.211 -165.885,-24.289 -221.5,-97.5 -47.311,-72.136 -55.311,-148.469 -24,-229 39.168,-82.347 104.001,-129.681 194.5,-142 z" />
  <path fill="#111111"
    d="m 359.99492,146.432 c 82.36,-2.645 148.527,28.355 198.5,93 51.661,77.992 55.994,158.659 13,242 -48.621,78.57 -119.454,116.07 -212.5,112.5 -77.354,-8.441 -136.187,-45.608 -176.5,-111.5 -34.373,-63.688 -38.706,-129.355 -13,-197 28.754,-66.089 77.587,-109.589 146.5,-130.5 14.67,-3.568 29.337,-6.402 44,-8.5 z" />
  <path fill="#111111"
    d="m 362.99492,153.432 c 79.926,-2.116 143.759,28.551 191.5,92 43.968,67.268 50.968,138.268 21,213 -36.178,75.536 -96.011,118.369 -179.5,128.5 -75.618,4.587 -138.118,-21.579 -187.5,-78.5 -50.976,-67.156 -61.976,-140.49 -33,-220 36.645,-80.8 99.145,-125.8 187.5,-135 z" />
  <path fill="#111111"
    d="m 656.99492,157.432 c 0.876,-0.131 1.543,0.202 2,1 3.546,7.206 7.879,13.873 13,20 -0.5,0.333 -1,0.667 -1.5,1 -1.961,-1.397 -4.128,-2.397 -6.5,-3 -14.701,7.865 -29.035,16.365 -43,25.5 -17.279,12.301 -19.612,26.968 -7,44 9.13,7.086 19.13,8.42 30,4 13.632,-7.484 26.966,-15.484 40,-24 2.167,-2.167 4.333,-4.333 6.5,-6.5 0.282,-3.502 0.449,-6.835 0.5,-10 3.574,6.249 7.574,12.249 12,18 -0.333,0.333 -0.667,0.667 -1,1 -2.938,-3.469 -6.604,-4.636 -11,-3.5 -15.405,9.731 -31.072,19.065 -47,28 -20.24,6.629 -34.407,0.129 -42.5,-19.5 -4.867,-12.612 -2.867,-23.945 6,-34 13.894,-10.699 28.394,-20.533 43.5,-29.5 1.833,-1.833 3.667,-3.667 5.5,-5.5 0.497,-2.31 0.663,-4.643 0.5,-7 z" />
  <path fill="#111111"
    d="m 99.994921,174.432 c 17.333999,-1.153 29.500999,6.18 36.499999,22 3.216,13.8 0.716,26.467 -7.5,38 0.333,0.333 0.667,0.667 1,1 6.503,-4.086 13.17,-7.919 20,-11.5 5.604,-3.603 9.771,-8.437 12.5,-14.5 0.726,-6.054 -1.441,-10.888 -6.5,-14.5 11.05,2.219 15.55,9.052 13.5,20.5 -3.62,5.941 -8.787,10.107 -15.5,12.5 -8.572,2.746 -16.906,6.079 -25,10 -1.5,1.5 -3,3 -4.5,4.5 -0.507,1.496 -0.007,2.663 1.5,3.5 3.978,2.572 8.145,4.739 12.5,6.5 2.058,-0.612 3.891,-1.612 5.5,-3 0.333,0.333 0.667,0.667 1,1 -5.087,6.257 -9.587,12.924 -13.5,20 -0.333,-2 -0.667,-4 -1,-6 -18.722,-14.281 -38.221999,-27.448 -58.499999,-39.5 -4.08,-3.615 -8.414,-4.115 -13,-1.5 -0.333,-0.333 -0.667,-0.667 -1,-1 1.833,-2.333 3.667,-4.667 5.5,-7 5.237,-13.32 13.07,-24.82 23.5,-34.5 4.289,-2.505 8.622,-4.672 13,-6.5 z" />
  <path fill="#FFFFFF"
    d="m 90.994921,183.432 c 19.763999,-0.062 33.596999,8.938 41.499999,27 0.907,11.945 -2.593,22.445 -10.5,31.5 -17.042,-8.456 -33.208999,-18.623 -48.499999,-30.5 -2.239,-5.332 -1.572,-10.332 2,-15 3.869,-6.048 9.035,-10.382 15.5,-13 z" />
  <path fill="#AD1A19"
    d="m 364.99492,225.432 c 23.645,15.242 40.145,36.242 49.5,63 8.086,24.728 10.752,50.061 8,76 -0.475,5.762 -1.142,11.428 -2,17 5.14,-4.135 9.14,-9.135 12,-15 4.125,-9.041 7.458,-18.374 10,-28 39.612,54.943 39.279,109.61 -1,164 -8.651,9.818 -17.817,19.151 -27.5,28 -0.333,-0.167 -0.667,-0.333 -1,-0.5 11.805,-14.104 20.639,-29.938 26.5,-47.5 2.11,-15.556 -0.557,-30.223 -8,-44 -8.254,-14.181 -17.254,-27.847 -27,-41 -9.039,-14.152 -12.706,-29.485 -11,-46 -20.673,14.994 -32.339,35.328 -35,61 -0.937,11.247 -0.437,22.414 1.5,33.5 -0.35,1.257 -1.017,1.591 -2,1 -5.944,-7.479 -9.777,-15.979 -11.5,-25.5 -22.048,29.092 -24.381,59.759 -7,92 3.285,4.954 6.952,9.62 11,14 0.667,0.667 0.667,1.333 0,2 -21.652,-21.989 -38.985,-46.989 -52,-75 -10.227,-25.442 -9.894,-50.775 1,-76 5.157,-10.984 10.824,-21.65 17,-32 11.333,-16.667 22.667,-33.333 34,-50 12.337,-20.336 17.67,-42.336 16,-66 -0.608,-1.654 -1.108,-3.321 -1.5,-5 z" />
  <path fill="#111111"
    d="m 658.99492,301.432 c -0.172,-0.992 0.162,-1.658 1,-2 5.139,19.746 17.806,27.579 38,23.5 21.543,-3.861 29.709,-16.361 24.5,-37.5 -2.135,-6.808 -6.635,-9.642 -13.5,-8.5 -15.725,3.848 -31.392,7.848 -47,12 -4.071,1.713 -5.071,4.546 -3,8.5 -1.478,-0.948 -2.478,-2.281 -3,-4 -0.12,-1.086 -0.787,-1.753 -2,-2 -5.95,0.701 -11.117,3.035 -15.5,7 -0.219,1.438 -0.719,2.771 -1.5,4 -1.81,-7.216 -3.81,-14.382 -6,-21.5 1.454,-1.659 2.787,-1.326 4,1 4.708,0.496 9.375,0.162 14,-1 19.753,-5.045 39.42,-10.378 59,-16 3.807,-1.105 6.14,-3.605 7,-7.5 2.998,10.828 6.498,21.494 10.5,32 3.82,15.193 0.32,28.359 -10.5,39.5 -18.591,11.031 -34.758,8.198 -48.5,-8.5 -3.627,-5.916 -6.127,-12.25 -7.5,-19 z" />
  <path fill="#FFFFFF"
    d="m 659.99492,299.432 c 0.172,-0.992 -0.162,-1.658 -1,-2 -2.071,-3.954 -1.071,-6.787 3,-8.5 15.608,-4.152 31.275,-8.152 47,-12 6.865,-1.142 11.365,1.692 13.5,8.5 5.209,21.139 -2.957,33.639 -24.5,37.5 -20.194,4.079 -32.861,-3.754 -38,-23.5 z" />
  <path fill="#111111"
    d="m 38.994921,260.432 c 10.535,2.64 21.202,4.64 32,6 -0.209,0.586 -0.543,1.086 -1,1.5 -12.533,-0.646 -23.0331,3.521 -31.5,12.5 -9.4788,17.586 -5.9788,32.086 10.5,43.5 13.682,7.754 28.348,11.087 44,10 19.824999,-3.506 28.658999,-15.339 26.499999,-35.5 -1.343,-5.884 -4.843,-9.717 -10.5,-11.5 -4.878,-1.806 -9.877999,-2.473 -14.999999,-2 -1.118,1.074 -2.118,2.24 -3,3.5 -0.333,-0.5 -0.667,-1 -1,-1.5 3.26,-6.8 4.926,-13.966 5,-21.5 1,0 2,0 3,0 -0.256,2.292 0.077,4.459 1,6.5 9.510999,3.628 19.177999,6.795 28.999999,9.5 -2.928,0.984 -5.928,1.317 -9,1 5.899,18.728 2.733,35.728 -9.5,51 -13.232999,11.432 -28.399999,14.932 -45.499999,10.5 -25.9339,-9.698 -36.4339,-28.198 -31.5,-55.5 2.9532,-7.934 7.1199,-15.101 12.5,-21.5 -2.0491,-2.247 -4.0491,-4.414 -6,-6.5 z" />
  <path fill="#111111"
    d="m 655.99492,293.432 c 0.522,1.719 1.522,3.052 3,4 0.838,0.342 1.172,1.008 1,2 -0.838,0.342 -1.172,1.008 -1,2 -0.667,1 -1.333,2 -2,3 0.284,-1.915 -0.049,-3.581 -1,-5 0,-2 0,-4 0,-6 z" />
  <path fill="#111111"
    d="m 655.99492,299.432 c 0.951,1.419 1.284,3.085 1,5 -1.655,6.954 -3.155,13.954 -4.5,21 -1.625,8.113 0.208,15.28 5.5,21.5 3.881,1.19 7.881,1.857 12,2 -1.216,1.74 -2.882,2.74 -5,3 -15.447,1.886 -22.281,-4.947 -20.5,-20.5 4.143,-10.606 7.976,-21.273 11.5,-32 z" />
  <path fill="#111111"
    d="m 98.994921,417.432 c 1.332999,0.667 2.666999,1.333 3.999999,2 -3.690999,3.181 -7.523999,3.514 -11.499999,1 -1.361,-5.907 -1.861,-11.907 -1.5,-18 -3.602,-0.178 -3.602,-1.178 0,-3 0.037,-5.049 2.371,-8.382 7,-10 0.987,3.268 1.32,6.602 1,10 2.686999,-0.164 5.353999,0.003 7.999999,0.5 -2.607,2.105 -5.607,2.938 -8.999999,2.5 -0.166,4.346 10e-4,8.679 0.5,13 0.278,0.916 0.778,1.582 1.5,2 z" />
  <path fill="#111111"
    d="m 40.994921,397.432 c 6.0941,-0.959 9.761,1.541 11,7.5 -3.944,2.55 -8.2775,4.05 -13,4.5 -1.675,5.34 0.325,8.34 6,9 2.4211,-0.572 4.754,-1.072 7,-1.5 -5.9698,6.059 -12.4698,6.892 -19.5,2.5 -3.534,-5.589 -3.2007,-10.922 1,-16 2.1141,-2.621 4.6141,-4.621 7.5,-6 z" />
  <path fill="#e6e6e6"
    d="m 40.994921,399.432 c 3.4868,0.945 4.8201,3.278 4,7 -2.361,0.174 -4.6944,0.507 -7,1 -0.4844,-3.288 0.5156,-5.955 3,-8 z" />
  <path fill="#111111"
    d="m 70.994921,396.432 c 1.699,-0.16 3.366,0.006 5,0.5 1.43,1.88 1.096,3.38 -1,4.5 -2.132,-1.617 -4.465,-2.117 -7,-1.5 -1.017,1.049 -1.184,2.216 -0.5,3.5 13.833,5.825 14,11.992 0.5,18.5 -3.183,1.031 -5.849,0.365 -8,-2 1.452,-4.068 3.452,-4.402 6,-1 1.941,0.743 3.774,0.576 5.5,-0.5 0.667,-1 0.667,-2 0,-3 -12.458,-5.943 -12.625,-12.276 -0.5,-19 z" />
  <path fill="#111111"
    d="m 635.99492,400.432 c 10.119,-0.048 13.285,4.618 9.5,14 -4.042,4.21 -8.208,8.21 -12.5,12 4.403,2.415 9.07,3.248 14,2.5 1.167,-1.167 2.333,-2.333 3.5,-3.5 -0.536,3.238 -2.37,5.738 -5.5,7.5 -2.081,0.869 -4.247,1.369 -6.5,1.5 -4.704,-1.413 -9.537,-2.247 -14.5,-2.5 6.596,-4.594 11.762,-10.427 15.5,-17.5 1.141,-7.508 -2.026,-10.008 -9.5,-7.5 -1.167,1.167 -2.333,2.333 -3.5,3.5 1.875,-4.379 5.041,-7.713 9.5,-10 z" />
  <path fill="#111111"
    d="m 724.99492,402.432 c 1.287,1.371 1.953,3.205 2,5.5 -0.95,7.487 -1.117,14.987 -0.5,22.5 0.5,0.5 1,1 1.5,1.5 -2.473,2.489 -5.307,3.323 -8.5,2.5 -0.262,-8.668 -0.096,-17.334 0.5,-26 -2.676,0.508 -5.343,0.675 -8,0.5 4.621,-1.7 8.955,-3.867 13,-6.5 z" />
  <path fill="#111111"
    d="m 666.99492,400.432 c 5.419,-0.541 8.919,1.793 10.5,7 1.666,9.884 -1.167,18.05 -8.5,24.5 -5.84,4.03 -10.673,3.196 -14.5,-2.5 -3.845,-10.286 -1.345,-18.62 7.5,-25 0.333,0.333 0.667,0.667 1,1 -2.887,5.628 -3.72,11.628 -2.5,18 0.229,2.958 1.396,5.458 3.5,7.5 3.726,0.961 5.892,-0.539 6.5,-4.5 0.87,-6.417 0.536,-12.751 -1,-19 -1.42,-1.922 -3.253,-3.255 -5.5,-4 1.27,-0.788 2.27,-1.788 3,-3 z" />
  <path fill="#111111"
    d="m 118.99492,412.432 c 1.554,1.414 2.888,3.081 4,5 -3.241,6.491 -6.241,6.491 -9,0 1.382,-2.049 3.048,-3.715 5,-5 z" />
  <path fill="#111111"
    d="m 102.99492,419.432 c -1.333,-0.667 -2.667,-1.333 -3.999999,-2 1.966999,0.239 3.800999,-0.094 5.499999,-1 0.585,1.498 0.085,2.498 -1.5,3 z" />
  <path fill="#111111"
    d="m 691.99492,401.432 c 10.362,-0.284 13.529,4.383 9.5,14 -3.988,3.822 -7.821,7.822 -11.5,12 5.623,3.794 11.123,3.794 16.5,0 -1.017,3.685 -3.517,6.185 -7.5,7.5 -4.939,0.612 -9.773,0.112 -14.5,-1.5 -1.896,0.37 -3.729,0.537 -5.5,0.5 5.833,-4.5 11,-9.667 15.5,-15.5 3.895,-8.389 1.395,-11.889 -7.5,-10.5 -1.431,0.465 -2.597,1.299 -3.5,2.5 -0.167,-0.333 -0.333,-0.667 -0.5,-1 2.426,-3.432 5.426,-6.099 9,-8 z" />
  <path fill="#111111"
    d="m 484.99492,626.432 c 19.115,-2.197 32.948,5.136 41.5,22 4.852,14.917 2.519,28.584 -7,41 -4.758,3.427 -9.258,6.927 -13.5,10.5 0.426,5.526 3.093,9.526 8,12 4.371,0.629 8.704,0.463 13,-0.5 0.259,2.98 -1.074,4.813 -4,5.5 -7.355,1.822 -14.688,1.822 -22,0 -6.411,-3.417 -10.078,-8.75 -11,-16 -21.337,-3.672 -32.337,-16.338 -33,-38 0.563,-18.982 9.896,-31.149 28,-36.5 z" />
  <path fill="#111111"
    d="m 260.99492,627.432 c 13.671,-0.167 27.337,0 41,0.5 15.165,1.531 20.332,9.365 15.5,23.5 -4.358,4.263 -9.525,7.097 -15.5,8.5 7.862,1.014 14.362,4.514 19.5,10.5 4.702,11.896 1.202,20.396 -10.5,25.5 -2.971,0.794 -5.971,1.461 -9,2 -13.996,0.5 -27.996,0.667 -42,0.5 0,-1.333 0,-2.667 0,-4 3.787,0.686 6.954,-0.314 9.5,-3 0.667,-19 0.667,-38 0,-57 -2.492,-1.997 -5.325,-2.997 -8.5,-3 0,-1.333 0,-2.667 0,-4 z" />
  <path fill="#111111"
    d="m 358.99492,627.432 c 16.039,-0.385 32.039,0.115 48,1.5 10.31,3.91 13.476,11.077 9.5,21.5 -3.979,5.074 -9.146,8.241 -15.5,9.5 9.277,0.969 16.111,5.469 20.5,13.5 1.808,15.866 -5.358,24.033 -21.5,24.5 -13.663,0.5 -27.329,0.667 -41,0.5 0,-1.333 0,-2.667 0,-4 4.184,0.796 7.35,-0.537 9.5,-4 0.667,-18.333 0.667,-36.667 0,-55 -2.579,-2.61 -5.746,-3.943 -9.5,-4 0,-1.333 0,-2.667 0,-4 z" />
  <path fill="#FFFFFF"
    d="m 486.99492,631.432 c 9.288,-1.746 16.455,1.254 21.5,9 5.888,15.287 5.888,30.62 0,46 -6.582,9.277 -15.082,11.444 -25.5,6.5 -5.698,-5.231 -8.865,-11.731 -9.5,-19.5 -0.667,-7.667 -0.667,-15.333 0,-23 1.593,-8.559 6.093,-14.893 13.5,-19 z" />
  <path fill="#111111"
    d="m 293.99492,632.432 c -3,0 -6,0 -9,0 0,8.667 0,17.333 0,26 -0.993,-8.818 -1.327,-17.818 -1,-27 3.542,-0.313 6.875,0.021 10,1 z" />
  <path fill="#FFFFFF"
    d="m 293.99492,632.432 c 3.525,-0.154 6.359,1.179 8.5,4 4.465,15.378 -1.369,22.711 -17.5,22 0,-8.667 0,-17.333 0,-26 3,0 6,0 9,0 z" />
  <path fill="#FFFFFF"
    d="m 382.99492,631.432 c 18.449,-0.751 23.782,7.083 16,23.5 -4.934,2.938 -10.267,4.105 -16,3.5 0,-9 0,-18 0,-27 z" />
  <path fill="#FFFFFF"
    d="m 284.99492,662.432 c 8.247,-1.445 15.08,0.888 20.5,7 4.005,8.286 2.838,15.786 -3.5,22.5 -14.882,5.633 -20.882,0.466 -18,-15.5 0.027,-4.747 0.36,-9.413 1,-14 z" />
  <path fill="#FFFFFF"
    d="m 382.99492,662.432 c 19.865,-1.32 26.698,7.347 20.5,26 -6.162,7.023 -12.829,7.689 -20,2 -0.5,-9.327 -0.666,-18.661 -0.5,-28 z" />
</svg>