<?xml version="1.0" encoding="UTF-8" standalone="no"?>

<svg width="99.708328mm" height="43.937885mm" viewBox="0 0 99.708328 43.937885" version="1.1" id="svg1"
   inkscape:version="1.3.2 (091e20e, 2023-11-25, custom)" sodipodi:docname="fire.svg"
   xmlns:inkscape="http://www.inkscape.org/namespaces/inkscape"
   xmlns:sodipodi="http://sodipodi.sourceforge.net/DTD/sodipodi-0.dtd" xmlns="http://www.w3.org/2000/svg"
   xmlns:svg="http://www.w3.org/2000/svg">
   <sodipodi:namedview id="namedview1" pagecolor="#ffffff" bordercolor="#000000" borderopacity="0.25"
      inkscape:showpageshadow="2" inkscape:pageopacity="0.0" inkscape:pagecheckerboard="0" inkscape:deskcolor="#d1d1d1"
      inkscape:document-units="mm" inkscape:zoom="2.9255612" inkscape:cx="230.89587" inkscape:cy="72.977452"
      inkscape:window-width="1920" inkscape:window-height="1017" inkscape:window-x="1912" inkscape:window-y="-8"
      inkscape:window-maximized="1" inkscape:current-layer="layer1" />
   <defs id="defs1" />
   <g inkscape:label="Layer 1" inkscape:groupmode="layer" id="layer1" transform="translate(-15,-52.211807)">
      <path
         d="M 32.245578,77.900467 C 27.98695,63.324307 24.944242,63.985765 26.472872,52.740974 22.562992,56.600027 15.83529,58.488542 15,74.714734 v 21.434958 h 99.70833 V 74.691191 c -2.96334,-10.413576 -1.0612,-11.962038 -8.99579,-18.091164 1.12024,9.10553 -7.478717,6.459697 -8.947687,19.09064 -6.203945,-16.202818 -14.935195,-12.630943 -14.406029,-23.47886 -9.533403,4.184506 -3.43062,16.586416 -7.854468,26.64492 0.442848,-7.139058 1.919735,-18.909544 -9.47574,-25.586587 0.01922,14.874998 -8.034072,8.267224 -9.550928,22.390629 C 48.888504,68.540435 46.110909,63.58889 47.160511,55.538731 39.760908,61.869099 33.940075,59.487849 32.245578,77.900467 Z"
         fill="#ad1a19" id="path1" sodipodi:nodetypes="cccccccccccccc" inkscape:label="path1"
         style="font-variation-settings:normal;opacity:1;vector-effect:none;fill:#ad1a19;fill-opacity:1;stroke-width:0.264583;stroke-linecap:butt;stroke-linejoin:miter;stroke-miterlimit:4;stroke-dasharray:none;stroke-dashoffset:0;stroke-opacity:1;-inkscape-stroke:none;stop-color:#000000;stop-opacity:1" />
      <path
         d="m 43.6653,145.66901 c -4.258628,-14.57616 -7.301336,-13.9147 -5.772706,-25.15949 -3.90988,3.85905 -10.637582,5.74757 -11.472872,21.97376 v 21.43496 h 87.008328 v -21.4585 c -2.96334,-10.41358 -0.71964,-9.40405 -8.65423,-15.53318 1.12024,9.10553 -9.486545,5.9481 -10.955515,18.57904 -6.20394,-16.20282 -8.240538,-12.26919 -7.711372,-23.11711 -9.533403,4.18451 -8.913673,9.97422 -7.911212,21.47973 -9.505386,-0.98924 -4.15516,-13.24561 -12.475726,-21.9123 0.742728,8.18255 -8.072777,5.95972 -4.705955,23.51978 -5.684799,-5.85419 -5.372426,-12.38443 -7.136609,-22.16843 -6.856971,7.59651 -11.77342,6.30052 -10.212131,22.36174 z"
         fill="#ad1a19" id="path1-2" sodipodi:nodetypes="cccccccccccccc" inkscape:label="path1"
         style="font-variation-settings:normal;vector-effect:none;fill:#ad1a19;fill-opacity:1;stroke-width:0.264583;stroke-linecap:butt;stroke-linejoin:miter;stroke-miterlimit:4;stroke-dasharray:none;stroke-dashoffset:0;stroke-opacity:1;-inkscape-stroke:none;stop-color:#000000" />
   </g>
</svg>